<svg width="25" height="25" viewBox="0 0 25 25"  xmlns="http://www.w3.org/2000/svg">
<path fill="#fff" d="M7.54468 9.00488V7.00488L14.5447 7.00488V9.00488H7.54468ZM7.54468 13.0049V11.0049H17.5447V13.0049H7.54468ZM7.54468 17.0049L7.54468 15.0049H11.5447L11.5447 17.0049H7.54468ZM5.44468 19.5049V4.50488L19.5447 4.50488V19.5049H5.44468ZM21.5447 19.5049V4.50488C21.5447 3.40488 20.6447 2.50488 19.5447 2.50488L5.54468 2.50488C4.44468 2.50488 3.54468 3.40488 3.54468 4.50488V19.5049C3.54468 20.6049 4.44468 21.5049 5.54468 21.5049H19.5447C20.6447 21.5049 21.5447 20.6049 21.5447 19.5049Z"/>
</svg>
